PathFileType	4	(X/Y/Z)	D:\TRACE\spot_10-12-23\spot_arm_motion_3_3-v60.trc
DataRate	CameraRate	NumFrames	NumMarkers	Units	OrigDataRate	OrigDataStartFrame	OrigNumFrames
100.00	100.00	      39	9	mm	100.00	4376	      7000
Frame#	Time	front left toe			Front right toe			aft left toe			aft right toe			Arm			FL body			FR body			AL Body			AR Body			
		X1	Y1	Z1	X2	Y2	Z2	X3	Y3	Z3	X4	Y4	Z4	X5	Y5	Z5	X6	Y6	Z6	X7	Y7	Z7	X8	Y8	Z8	X9	Y9	Z9	

4376	43.750	-195.11218	17.81018	-23.21311	298.85931	21.15102	-1.36561	-205.84109	81.98362	586.11414	277.27847	78.35191	602.54694	17.32201	767.77618	-750.97827	-20.19023	539.25482	-67.00973	132.35510	542.86298	-65.10918	-38.54798	632.98651	812.23651	112.40305	629.83258	816.79388	
4377	43.760	-195.18634	17.78717	-23.28041	298.72046	21.02634	-1.53820	-205.85612	82.32316	586.02759	277.40512	78.73615	602.41687	16.91177	769.04248	-750.97375	-20.16104	539.42181	-67.02037	132.31158	542.97583	-65.11884	-38.26416	633.10339	812.24268	112.56333	629.86719	816.75885	
4378	43.770	-195.17984	17.79282	-23.36719	298.73114	21.04320	-1.58056	-205.75229	82.72516	585.92029	277.36395	78.86623	602.30249	17.02276	770.04401	-750.89459	-20.11826	539.53149	-67.01881	132.40677	543.17426	-65.15646	-38.45317	633.49054	812.16205	112.68520	629.91309	816.73224	
4379	43.780	-195.18454	17.81437	-23.44902	298.64703	21.03104	-1.68651	-205.66455	83.10720	585.78851	277.43402	79.13106	602.19696	16.98487	770.76147	-750.99420	-20.01255	539.73486	-67.06085	132.45721	543.37268	-65.27785	-38.34214	633.60742	812.10150	112.99153	630.03070	816.69452	
4380	43.790	-195.13104	17.80326	-23.57447	298.77396	21.05273	-1.68861	-205.59750	83.37132	585.74854	277.35437	79.50521	602.09106	16.98914	771.08130	-751.05420	-19.88980	539.89636	-67.13412	132.62054	543.51477	-65.32033	-38.11571	633.67523	812.02295	113.13113	630.13202	816.61414	
4381	43.800	-195.18568	17.72338	-23.67636	298.66537	21.01931	-1.80990	-205.58392	83.67154	585.70911	277.36990	79.73782	601.98199	17.09054	771.13501	-751.09222	-19.73407	540.08185	-67.10809	132.72934	543.55743	-65.40277	-38.46988	634.18481	811.22241	113.32233	630.26111	816.58710	
4382	43.810	-195.13948	17.69370	-23.69268	298.68198	20.92559	-1.95143	-205.62769	84.02165	585.65399	277.33173	80.10895	601.90533	17.27712	771.11847	-750.89185	-19.62924	540.13257	-67.19456	132.83224	543.62122	-65.44611	-38.34320	634.21936	811.01697	113.52357	630.41547	816.52319	
4383	43.820	-195.13342	17.68701	-23.76215	298.78955	20.97215	-2.04239	-205.67725	84.29532	585.52185	277.35696	80.48002	601.83057	17.43161	770.57178	-750.45801	-19.49312	540.32288	-67.18761	132.93394	543.74969	-65.52415	-37.81919	633.97980	811.39758	113.64650	630.50848	816.54370	
4384	43.830	-195.10608	17.73125	-23.92755	298.85086	20.91293	-2.15377	-205.62706	84.57344	585.36774	277.37677	80.87544	601.66406	17.74843	769.57562	-749.92609	-19.46131	540.66980	-67.31342	132.98799	543.93231	-65.58814	-37.75110	634.05597	811.29663	113.91594	630.65198	816.44440	
4385	43.840	-195.03522	17.64638	-24.05555	298.94635	20.84970	-2.31857	-205.49010	84.90172	585.23132	277.38202	81.23695	601.57642	17.94700	767.79803	-749.73047	-19.50088	540.97467	-67.38824	133.07768	544.14764	-65.71376	-37.65956	634.11719	811.25812	114.02632	630.73523	816.41888	
4386	43.850	-194.91583	17.57668	-24.18404	298.98642	20.82259	-2.50323	-205.33348	85.31480	585.19147	277.38165	81.48626	601.52600	18.12008	765.37341	-749.87848	-19.39777	541.09961	-67.42466	133.10089	544.41553	-65.85157	-37.34733	634.17426	811.63263	114.07339	630.91162	816.38690	
4387	43.860	-194.70496	17.57112	-24.29070	299.14850	20.84081	-2.56528	-205.17093	85.58230	585.15454	277.43530	81.80910	601.38385	18.64014	762.42065	-750.05090	-19.26466	541.15216	-67.44249	133.12125	544.58191	-65.93368	-37.27688	634.54437	811.61127	114.27116	631.15942	816.59796	
4388	43.870	-194.60812	17.52291	-24.36662	299.23676	20.62913	-2.48760	-205.18672	85.88168	585.03387	277.50595	82.21111	601.29620	18.78057	759.05762	-750.36871	-19.10566	541.09918	-67.46581	133.20805	544.53772	-65.97478	-37.21321	635.04309	811.62079	114.17203	631.63513	816.25244	
4389	43.880	-194.46646	17.48289	-24.42050	299.24374	20.62982	-2.64708	-205.19196	86.30663	584.86353	277.53595	82.54358	601.20770	19.15778	755.81982	-750.75031	-18.98058	541.02570	-67.56266	133.29544	544.34491	-66.07287	-37.39526	635.64923	811.04401	114.10249	632.06262	816.19733	
4390	43.890	-194.38889	17.46432	-24.52640	299.37250	20.61403	-2.71551	-205.14893	86.76796	584.73407	277.59442	83.03436	601.14117	19.51797	752.47223	-751.26373	-18.91343	540.84375	-67.67496	133.32965	544.06281	-66.19803	-37.41071	636.08624	810.80414	114.37762	632.63147	816.20233	
4391	43.900	-194.35368	17.37307	-24.62949	299.49347	20.55157	-2.79392	-204.98508	87.04737	584.66254	277.67114	83.36249	600.96899	19.43086	749.30157	-751.54010	-18.81191	540.53638	-67.77851	133.11897	543.91010	-66.40768	-37.05716	636.51642	811.09637	114.37037	633.15173	816.05072	
4392	43.910	-194.33569	17.32176	-24.82265	299.49112	20.51111	-3.05035	-204.86655	87.49651	584.53552	277.70627	83.69097	600.87506	19.34760	746.43115	-751.91705	-18.49128	539.99036	-67.81684	133.09378	543.61627	-66.62057	-37.22363	637.14215	810.78729	114.31001	633.75024	815.79510	
4393	43.920	-194.28668	17.20972	-24.93373	299.64172	20.41529	-3.01442	-204.80836	87.83768	584.27917	277.71329	84.07716	600.63934	19.56724	743.96814	-752.20898	-18.33994	539.54974	-67.90095	133.51811	542.50922	-65.74905	-37.15695	637.58240	810.62988	114.97526	634.78815	816.40723	
4394	43.930	-194.29324	17.16351	-25.09731	299.64453	20.29930	-3.23509	-204.79187	88.01920	584.15747	277.77234	84.43949	600.57019	19.55843	741.89838	-752.38702	-18.28544	538.91510	-68.05865	133.37294	542.25269	-66.33749	-37.09063	637.97589	810.50342	114.21413	634.72369	815.32635	
4395	43.940	-194.20079	17.10859	-25.14435	299.72934	20.27971	-3.37029	-204.79999	88.25654	584.00238	277.90295	84.79689	600.56482	19.88141	740.09833	-752.65155	-18.24433	538.47925	-68.23945	133.72511	541.59491	-65.91653	-36.99274	638.52795	810.29462	114.16114	635.21417	814.97382	
4396	43.950	-194.22551	17.09666	-25.29363	299.71954	20.19985	-3.60443	-204.82436	88.58804	583.81018	277.96185	85.12608	600.48541	19.92099	739.00476	-752.80481	-18.06083	538.20514	-68.42633	133.58304	541.54346	-66.75018	-36.92530	639.13544	810.05261	114.10040	635.68591	814.67615	
4397	43.960	-194.21498	17.10884	-25.34647	299.76758	20.36967	-3.53773	-204.79161	88.97757	583.60376	277.97397	85.50842	600.27789	19.88835	738.03284	-753.05414	-18.00586	537.90326	-68.54836	133.61760	541.28760	-66.76096	-36.74593	639.95557	811.99664	114.20227	636.20410	814.45209	
4398	43.970	-193.90837	16.99215	-25.34059	299.86935	20.33317	-3.53528	-204.68826	89.33257	583.45593	277.84924	85.76739	600.09082	20.01960	737.49927	-753.13086	-17.92392	537.58905	-68.69308	133.68356	541.03131	-66.86933	-36.69804	640.46185	811.41827	114.12675	636.46039	814.28290	
4399	43.980	-193.87802	17.00850	-25.41737	299.96045	20.40740	-3.22334	-204.57771	89.66887	583.36060	277.82016	85.98930	599.95892	19.97144	737.37738	-753.30389	-17.81194	537.19495	-68.79308	134.47453	540.68768	-66.86687	-36.99246	640.64978	810.31964	114.25343	637.00165	814.20508	
4400	43.990	-193.80043	16.97834	-25.46693	300.06879	20.41488	-3.30521	-204.42744	89.91382	583.37427	277.93814	86.33205	599.78564	19.93882	737.49731	-753.54333	-17.63988	536.72449	-68.86137	133.82298	540.33527	-67.20351	-36.61610	640.64587	809.80164	114.39809	637.42188	814.13727	
4401	44.000	-193.74966	16.95413	-25.52662	300.25790	20.32561	-3.46896	-204.39023	90.17957	583.28033	278.05515	86.68066	599.61407	19.94348	737.80731	-753.68909	-17.60127	536.34662	-68.89782	134.00261	540.09454	-67.29548	-36.63554	641.01227	808.82611	114.45306	637.90051	813.79797	
4402	44.010	-193.62891	16.91048	-25.58639	300.22540	20.44125	-3.52976	-204.35269	90.42886	583.13495	278.21817	86.97655	599.46918	20.06728	738.17505	-753.86353	-17.59643	536.21075	-68.97765	134.14124	539.90271	-67.41769	-36.68969	641.53198	808.35596	114.53733	638.13916	813.74731	
4403	44.020	-193.41411	16.87133	-25.69678	300.29178	20.51396	-3.69707	-204.24759	90.70695	583.07257	278.33932	87.23271	599.33832	19.74855	738.84686	-753.80426	-17.56957	536.09290	-69.06381	134.23981	539.75549	-67.55072	-36.72641	641.85675	808.17981	114.62244	638.34985	813.68292	
4404	44.030	-193.29790	16.78671	-25.76027	300.32614	20.53006	-3.83821	-204.14366	90.99803	582.98126	278.50125	87.54227	599.30170	19.60540	739.72620	-754.02185	-17.54734	536.03754	-69.15742	134.31142	539.64417	-67.63308	-36.74887	642.22076	808.44513	114.76740	638.68079	813.55865	
4405	44.040	-193.16129	16.82145	-25.85898	300.55765	20.52775	-3.81949	-204.10695	91.34754	582.79541	278.63892	87.82694	599.24384	19.51752	740.45996	-754.07770	-17.53598	535.92719	-69.22406	134.39851	539.56763	-67.72754	-36.72555	642.62274	808.22113	114.89726	639.18097	813.37488	
4406	44.050	-193.10736	16.82611	-25.90141	300.64008	20.53525	-3.92786	-204.00685	91.57663	582.68549	278.82343	88.09769	599.10297	19.51899	741.34216	-754.02710	-17.41485	535.91980	-69.33204	134.63173	539.34955	-67.42375	-36.58907	643.00305	808.02466	115.16202	639.52960	813.25256	
4407	44.060	-193.23817	16.95735	-25.96112	300.71991	20.55665	-3.85596	-203.88361	91.92213	582.55762	278.96674	88.40514	599.05444	19.55324	742.27423	-754.10516	-17.36053	535.91949	-69.49811	134.67804	539.34607	-67.54635	-36.17067	642.89807	807.99335	115.25362	639.71448	813.12891	
4408	44.070	-193.17815	17.00793	-26.11575	300.73935	20.61489	-4.06358	-203.75478	92.20119	582.52393	279.02988	88.66732	598.92596	19.51969	743.29919	-754.04877	-17.30126	535.89789	-69.55650	134.76181	539.35883	-67.66044	-36.03516	643.09509	807.92047	115.46354	639.95996	812.88306	
4409	44.080	-192.80833	16.90144	-26.18629	300.94089	20.57187	-4.09672	-203.64294	92.42924	582.47388	279.10449	88.89402	598.75018	19.51446	744.08057	-754.17975	-17.27007	535.88977	-69.64104	134.82413	539.15796	-67.68170	-35.87074	643.36426	807.80664	115.43247	640.25177	812.37891	
4410	44.090	-192.43927	16.68823	-26.18255	301.15176	20.50991	-4.11160	-203.47021	92.63182	582.45026	279.24933	89.11822	598.62860	19.42819	744.96179	-754.15527	-17.18797	535.83276	-69.77402	134.98811	539.10907	-67.76685	-35.56726	643.62347	807.71643	115.54195	640.48065	812.25531	
4411	44.100	-192.34024	16.68203	-26.23975	301.22714	20.53649	-4.22799	-203.28114	92.92660	582.33472	279.39050	89.43752	598.63129	19.49008	745.77374	-754.16071	-17.19892	535.79517	-69.85602	135.18268	539.01147	-67.85773	-35.38801	643.94958	807.55566	115.81194	640.82471	812.15021	
4412	44.110	-192.24512	16.67999	-26.28740	301.51443	20.48603	-4.33354	-203.10394	93.15037	582.27112	279.55438	89.64996	598.52228	19.49294	746.36804	-754.27032	-17.05165	535.70514	-69.96889	135.37596	538.88574	-68.02563	-35.09934	644.27496	807.47113	116.00799	641.09808	812.01752	
4413	44.120	-193.20006	17.21291	-26.37291	301.57971	20.36904	-4.39935	-203.01689	93.38794	582.14465	279.71707	89.86543	598.45233	19.55524	747.08557	-754.51276	-16.93036	535.59650	-70.06799	135.48576	538.85211	-68.06589	-34.99749	644.63660	807.07886	116.37177	641.46143	812.12427	
4414	44.130	-192.64403	16.99391	-26.47366	301.82144	20.33460	-4.34678	-202.81848	93.69027	581.97906	279.92310	90.16737	598.27789	19.87435	747.68982	-754.51593	-16.83716	535.53955	-70.12461	135.49028	538.81976	-68.18364	-34.35724	644.89716	808.22498	117.14569	642.17523	812.67371	
